<svg xmlns="http://www.w3.org/2000/svg" xmlns:xlink="http://www.w3.org/1999/xlink" width="400" height="400" viewBox="0 0 200 200" overflow="hidden!important" xmlns:v="https://vecta.io/nano"><style><![CDATA[.B{fill:#f0c7b1}.C{fill:#c27b55}.D{stroke:#c27b55}.E{stroke-width:1.275}.F{fill:#4e60a3}.G{fill:#2a232b}]]></style><defs><radialGradient id="A" cx="129.041" cy="83.945" r="15.117" gradientTransform="scale(-1 1) rotate(5.981 22.864 -1851.752)" xlink:href="#Y"><stop stop-color="#fff" offset="0"/><stop stop-color="#fcfdfd" offset=".315"/><stop stop-color="#f4f7f8" offset=".504"/><stop stop-color="#e5ecef" offset=".66"/><stop stop-color="#d8e2e7" offset=".76"/></radialGradient><radialGradient id="B" cx="100" cy="114" r="41" xlink:href="#Y"><stop stop-opacity=".5" stop-color="#ffe4d6" offset="0"/><stop stop-opacity="0" stop-color="#f0c7b1" offset=".9"/></radialGradient><radialGradient id="C" cx="-582.838" cy="-519.099" r="59.745" gradientTransform="matrix(.0991 .00089 -.0011 .0991 131.113 135.986)" xlink:href="#Y"><stop stop-color="#fff" offset="0"/><stop stop-opacity="0" stop-color="#fff" offset="1"/></radialGradient><radialGradient id="D" cx="-568.654" cy="-521.042" r="59.752" gradientTransform="matrix(.096 -.0248 .0245 .0961 193.28 119.99)" xlink:href="#Y"><stop stop-color="#fff" offset="0"/><stop stop-opacity="0" stop-color="#fff" offset="1"/></radialGradient><radialGradient id="E" cx="-582.833" cy="-519.102" r="59.747" gradientTransform="matrix(.0991 .00089 -.0011 .0991 183.113 135.986)" xlink:href="#Y"><stop stop-color="#fff" offset="0"/><stop stop-opacity="0" stop-color="#fff" offset="1"/></radialGradient><radialGradient id="F" cx="100" cy="54" r="37" xlink:href="#Y"><stop stop-opacity=".5" stop-color="#ffe4d6" offset="0"/><stop stop-opacity="0" stop-color="#f0c7b1" offset=".9"/></radialGradient><radialGradient id="G" cx="-568.659" cy="-521.042" r="59.751" gradientTransform="matrix(.096 -.0248 .0245 .0961 141.281 119.99)" xlink:href="#Y"><stop stop-color="#fff" offset="0"/><stop stop-opacity="0" stop-color="#fff" offset="1"/></radialGradient><radialGradient id="H" cx="128.643" cy="83.986" r="15.116" gradientTransform="rotate(5.981 122.87 62.427)" xlink:href="#Y"><stop stop-color="#fff" offset="0"/><stop stop-color="#fcfdfd" offset=".316"/><stop stop-color="#f4f7f8" offset=".505"/><stop stop-color="#e5ecef" offset=".661"/><stop stop-color="#d8e2e7" offset=".76"/></radialGradient><radialGradient id="I" cx="121.986" cy="82.496" fx="133.239" fy="82.527" r="16.003" gradientTransform="matrix(.9998 .0208 .0166 -.7998 -45.32 145.94)" xlink:href="#Y"><stop stop-color="#e1ac8f" offset="0"/><stop stop-opacity=".3" stop-color="#e1ac8f" offset=".7"/><stop stop-opacity="0" stop-color="#f0c7b1" offset="1"/></radialGradient><radialGradient id="J" cx="68.931" cy="105.995" r="29.524" gradientTransform="matrix(1.0336,0,0,1.0336,-1.68,1.313)" xlink:href="#Y"><stop stop-opacity="0" offset=".95"/><stop stop-opacity=".2" offset="1"/></radialGradient><radialGradient id="K" cx="121.587" cy="82.496" fx="132.839" fy="82.527" r="16.003" gradientTransform="matrix(-.9998 .0208 -.0166 -.7998 244.52 145.948)" xlink:href="#Y"><stop stop-color="#e1ac8f" offset="0"/><stop stop-opacity=".3" stop-color="#e1ac8f" offset=".7"/><stop stop-opacity="0" stop-color="#f0c7b1" offset="1"/></radialGradient><radialGradient id="L" cx="69.316" cy="105.995" r="29.524" gradientTransform="matrix(-1.0336,0,0,1.0336,201.68,1.313)" xlink:href="#Y"><stop stop-opacity="0" offset=".95"/><stop stop-opacity=".2" offset="1"/></radialGradient><linearGradient id="M" x1="100" y1="170" x2="100" y2="132" xlink:href="#Y"><stop stop-opacity=".8" stop-color="#e1ac8f" offset="0"/><stop stop-color="#c27b55" offset=".7"/></linearGradient><linearGradient id="N" x1="77.636" y1="79.822" x2="75.91" y2="81.879" xlink:href="#Y"><stop stop-color="#fff" offset="0"/><stop stop-opacity="0" stop-color="#fff" offset="1"/></linearGradient><linearGradient id="O" x1="100" y1="141" x2="100" y2="137" xlink:href="#Y"><stop stop-color="#e8b9a0" offset=".1"/><stop stop-color="#e1ac8f" offset="1"/></linearGradient><linearGradient id="P" x1="70.67" y1="88.268" x2="71.606" y2="87.152" xlink:href="#Y"><stop stop-color="#fff" offset="0"/><stop stop-opacity="0" stop-color="#fff" offset="1"/></linearGradient><linearGradient id="Q" x1="122.67" y1="88.268" x2="123.606" y2="87.152" xlink:href="#Y"><stop stop-color="#fff" offset="0"/><stop stop-opacity="0" stop-color="#fff" offset="1"/></linearGradient><linearGradient id="R" x1="75.212" y1="82.296" x2="74.463" y2="83.189" xlink:href="#Y"><stop stop-color="#fff" offset="0"/><stop stop-opacity="0" stop-color="#fff" offset="1"/></linearGradient><linearGradient id="S" x1="129.636" y1="79.822" x2="127.91" y2="81.879" xlink:href="#Y"><stop stop-color="#fff" offset="0"/><stop stop-opacity="0" stop-color="#fff" offset="1"/></linearGradient><linearGradient id="T" x1="127.212" y1="82.296" x2="126.463" y2="83.189" xlink:href="#Y"><stop stop-color="#fff" offset="0"/><stop stop-opacity="0" stop-color="#fff" offset="1"/></linearGradient><path id="U" d="M181.084 192.063c-1.867-4.034-6.966-10.012-12.631-11.664-7.003-2.042-22.812-4.512-28.673-5.884-4.7-1.102-14.163-9.6-17.48-12.453-.595-.51-1.082-1.563-1.094-2.346-.118-9.234 3.566-33.765 3.566-33.765H75.187s3.684 24.53 3.564 33.765c-.009.783-.499 1.836-1.092 2.346-3.317 2.853-12.78 11.351-17.48 12.453-5.862 1.372-21.67 3.926-28.672 5.968-5.667 1.651-10.765 7.545-12.631 11.579-3.152 6.807-3.897 19.125-3.897 29.75h170c0-10.624-.745-22.942-3.895-29.75z"/><path id="V" d="M131.798 135.26c-6.072 6.925-20.45 20.24-28.22 22.976-.677.238-5.559.497-6.256.333-8.964-2.105-23.315-14.1-30.448-19.925-.62-.507-1.688-1.733-2.104-2.418-6.404-10.533-18.107-45.82-18.118-45.86A51.332 51.332 0 0 1 44.267 77.4c-1.533-28.413 20.351-52.687 48.885-54.227s52.908 20.237 54.44 48.649a51.389 51.389 0 0 1-.972 13.15c-.01.04-8.082 36.275-13.079 47.543-.329.743-1.207 2.134-1.743 2.746z"/><path id="W" d="M61.752 82.523c-.506-2.285 5.191-3.973 12.711-3.051s12.738 5.524 12.052 7.844c-.38 1.286-10.639 3.245-14.253 2.847-3.664-.405-9.288-2.123-10.51-7.64z"/><path id="X" d="M137.849 82.523c.506-2.285-5.191-3.973-12.711-3.051s-12.738 5.524-12.052 7.844c.38 1.286 10.639 3.245 14.253 2.847 3.664-.405 9.288-2.123 10.51-7.64z"/><linearGradient id="Y" gradientUnits="userSpaceOnUse"/></defs><path d="M225 225H-25V-25h250v250z" fill="#ecf0f1"/><path d="m98.202 107.712-.85.045-.044-.85.85-.044.044.85z" class="G"/><use xlink:href="#U" class="B"/><path d="M150.262 178.7c20.69 3.012 29.398 7.403 32.125 43.114h2.592c0-10.625-.745-22.943-3.895-29.75-1.867-4.034-6.966-10.012-12.631-11.664-7.003-2.042-22.812-4.512-28.673-5.884-4.7-1.102-15.506-10.26-18.397-13.898 2.856 3.998 10.872 13.264 17.896 15.691 3.36 1.161 6.158 1.69 10.983 2.392zM60.68 176.31c7.024-2.426 15.04-11.693 17.896-15.691-2.89 3.638-13.697 12.796-18.396 13.898-5.862 1.372-21.67 3.926-28.673 5.968-5.666 1.65-10.765 7.545-12.631 11.579-3.15 6.807-3.896 19.125-3.896 29.75h2.593c2.71-35.483 11.453-40.106 32.125-43.113 4.823-.701 7.622-1.23 10.982-2.391z" fill="#ffe4d6"/><path d="M96.278 190.229l-6.02-2.023c-8.882-3.407-37.736-5.616-37.736-5.616s30.391 1.207 37.097 2.363c-.389-4.052-2.564-17.004-2.564-17.004l5.448 17.899c.573 1.927 3.775 4.38 3.775 4.38zm9.18-1.141c-.076.062-.163.143-.257.228a1.91 1.91 0 0 0 .256-.228zm-9.18 1.14s2.46 2.544 3.695 2.576c1.624.043 4.104-2.464 5.229-3.488-1.076.813-3.535 1.182-4.514 1.22-1.13.044-4.41-.307-4.41-.307zm17.866-6.39c-1.314.21-3.728.67-3.728.67l1.943-12.656c-.549 2.61-3.802 13.779-6.902 17.236 1.624-1.374 5.235-2.032 7.076-2.299 8.7-1.26 8.697-1.26 34.903-4.199 0 0-24.71-.131-33.292 1.247z" fill="#e1ac8f"/><use xlink:href="#U" fill="none" class="D E"/><path d="M103.705 170.189c5.292-1.558 13.31-7.012 20.631-12.852.352-6.636 1.433-15.887 2.396-23.284-14.957-2.455-38.464-2.408-53.454.081.95 7.3 2.01 16.38 2.372 22.974 7.055 5.816 14.789 11.372 20.685 13.087.809.236 6.561.233 7.37-.006z" fill="url(#M)" transform="matrix(.85 0 0 .85 14.98 22.252)"/><path d="M11.85 223.015c-2.477-20.65 6.818-40.027 29.321-46.42 6.605-1.876 4.838-2.84 5.837-2.898-.033-.18-.038-.17-.038-.536h-.03c.073-6.825 7.673-5.485 9.848-5.936 8.603-1.834 11.525-10.868 21.348-8.487.241 2.071.064 4.46-1.165 13.313 9.264 19.946 19.313 18.222 22.886 29.386 3.243-9.984 14.738-11.575 23.21-29.39-.557-5.001-1.77-9.378-1.26-13.545l.049-.035c6.582-2.196 9.458.743 12.078 3.276 7.988 7.72 12.225 2.826 16.222 6.338 1.59 1.41 2.165 3.397 2.165 5.54 18.2 2.644 39.078 8.414 34.926 48.86l.082.088c-18.42 0-123.436 4.613-175.48.446z"/><path d="M100.207 200.484c3.595-9.042 14.404-11.162 22.562-27.842.083-.092.295-.502.557-1.051-.14-1.552-.316-3.185-1.03-4.894-.445-2.847-.799-5.515-.5-8.105 1.678.492 3.266 1.073 4.352 2.261 1.6 1.745.387 4.768-1.144 7.686-2.871 12.53-10.07 21.582-24.797 31.945zm58.662-9.202c2.497 8.82 4.16 22.889 2.162 31.828l3.83-.117c.692-9.39-1-24.383-5.992-31.711zm-26.926 1.594c-10.885 6.358-21.834 8.805-31.723 17.248-9.894-8.419-20.95-9.892-31.835-16.242-4.99-2.006-12.643-9.094-17.32-14.086 14.715 22.341 25.25 16 48.818 31.057 23.576-15.058 34.174-9.938 48.889-32.278-4.678 4.991-11.838 12.308-16.83 14.301zm-32.125 8.671c-3.603-9.047-13.99-12.225-22.148-28.905-.079-.092-.291-.502-.554-1.051.133-1.552-.223-3.265.498-4.979.443-2.854.636-5.178.334-7.762-1.674.488-2.571.815-3.657 2.003-1.598 1.745-.385 4.768 1.145 7.686 2.87 12.53 9.65 22.642 24.382 33.008zm-61.75-11.26c-3.66 7.986-3.69 23.317-2.999 32.707l3.83.117c-1.997-8.94-1.498-23.838-.831-32.825zm61.816 12.984c13.93-4.173 28.741-11.81 41.06-30.47-11.122 14.997-27.647 23.854-40.738 29.287-13.506-4.898-29.678-14.638-39.105-27.74 11.047 18.096 24.86 24.75 38.783 28.923z"/><path d="M187.327 222.569h-.318c-.363-41.322-23.372-42.987-36.108-45.666-1.993 0-3.029-5.53-4.495-7.004-1.247-1.254-10.853-1.254-13.896-9.493.496.436.962.894 1.423 1.337 7.988 7.72 12.225 2.826 16.223 6.338 1.59 1.41 2.165 3.397 2.165 5.54 18.2 2.644 39.077 8.414 34.925 48.86l.08.088zm-175.72.997h.32c4.044-32.837 13.624-43.189 37.01-47.059 2.934-1.116 1.39-3.238 2.858-4.712 1.247-1.248 8.183-1.275 17.786-11.381-.495.436-2.614.886-3.073 1.329-7.988 7.72-14.012 5.533-16.225 6.338-2.727 1.01-3.15 3.424-3.15 5.564-18.203 2.644-37.538 12.728-35.447 49.832l-.08.089z" fill="#0f0f0f"/><path d="M152.416 173.533c0-8.38-7.876-6.71-11.5-7.49-7.998-1.717-7.746-10.979-19.195-7.638-.488 3.959.439 7.428 1.252 13.598-8.395 17.642-20.04 19.629-23.116 29.108-3.364-10.523-13.638-9.464-22.789-29.045 1.274-9.212 1.401-11.351 1.156-13.408-8.73-1.997-10.7 3.672-18.594 7.46-4.792 2.245-6.145.223-10.257 2.238-1.706.822-2.565 3.067-2.504 4.902 0 .126 0 .235.02.345-1 .07.463.063-6.225 1.144-21.559 3.485-31.119 21.704-28.904 48.37 10.106 0 .859 3.724 155.674-.066l19.892-.38c4.726-39.544-15.236-46.087-34.91-49.138zM11.899 222.9c2.192-30.603 6.815-42.522 34.889-48.73 15.281 25.364 33.983 21.675 52.897 35.861-17.14-14.255-35.107-12.367-52.379-36.195-.193-2.001.85-4.202 3.005-5.066 1.527-.596 3.162-.423 4.76-.414 6.024.045 10.664-4.677 15.124-8.142 2.124-1.42 5.287-1.489 7.82-1.098.197 3.293-1.072 8.263-1.497 11.768-.886-1.95-1.725-3.964-2.563-5.968 10.6 31.13 21.167 24.083 25.892 36.996-1-.278-17.862-6.348-31.299-19.71-2.854-2.826-8.51-9.058-8.939-9.639 16.637 22.534 27.268 23.681 40.283 29.487 0 .009.018.03.018.041.01.03.057.188.073.218.063-.028.134-.06.203-.078.022-.018.04-.028.068-.028 1.804-.886 13.655-5.016 22.679-11.22 9.288-6.39 19.881-20.247 19.083-19.244-15.515 15.787-17.914 19.368-41.83 30.32a.122.122 0 0 1-.059-.018c-.019-.111-.054-.218-.09-.329a.82.82 0 0 1 .045-.151c4.206-11.542 16.555-7.08 26.784-38.721-1.048 2.734-2.148 5.425-3.383 8.063-.388-4.637-1.735-8.293-1.585-12.11 1.772-.589 6.58-.869 7.912.46 5.55 4.749 6 8.226 15.042 8.226 2.899.017 6.69.383 7.118 5.702-.533.784-4.497 5.466-8.247 9.188-13.123 13.062-24.862 13.314-43.026 27.206.443 0 1.364-.962 1.724-1.206 14.205-10.084 24.411-9.925 37.473-20.611 6.02-4.918 11.812-12.788 12.435-13.789.019.011.05.011.067.011 23.968 4.125 35.973 13.143 34.65 48.509-107.43-.672-122.015 2.186-175.147.411z"/><path d="M50.942 96.437c-1.37-2.023-5.78-7.527-8.882-6.56-2.522.79-2.302 4.352-2.39 6.471-.126 3.108.051 8.502 1.005 10.645.918 2.057 3.684 5.98 5.351 7.444 2.05 1.795 5.484 7.678 5.9 8.285.656.96 1.94 2.315 3.792 2.106 2.599-.294 4.722-2.875 4.864-4.072.767-6.5-6.074-19.053-9.64-24.319z" class="B D E"/><path d="M50.36 109.233c-.146-.472-.06-1.285.023-2.069.076-.715.147-1.39.058-1.86-.339-1.761-1.895-5.059-2.892-6.838-1.148-2.048-2.964-4.607-5.105-5.18-.884-.237-1.44.131-1.752.49-.232.265-.271.564-.19.595s.25-.224.501-.468c.206-.2-.433-.01 0 0-.128.892-.454 5.388.103 8.628.439 2.55 1.126 4.435 1.322 4.712a6.6 6.6 0 0 0 .182.878c1.047 3.7 6.835 8.304 8.195 9.632.25.244.508.384.566.318s-.102-.312-.352-.559c-1.344-1.318-7.094-5.91-8.105-9.478-1.073-3.786 2.822-9.687 3.427-10.924a21.29 21.29 0 0 1 .934 1.513c.194.345.409.75.633 1.188-.36.647-4.072 5.429-2.875 9.038.442 1.331 3.406 2.921 4.542 3.34.625.23.875.61 1.165 1.05.337.513.127 1.89 1.166 2.27.212.078.4.103.566.095a1.03 1.03 0 0 0 .652-.276c.029.229.043.524.05.798.008.356.066.515.152.517s.17-.157.164-.508c-.009-.433-.04-.969-.13-1.222-.268-.743-1.008-1.56-1.793-2.423-.771-.85-.98-2.527-1.206-3.257zm-8.009-2.908c-2.3-5.772.5-11.286.906-12.116.877.294 2.272 1.748 2.878 2.603-.37.728-3.908 5.556-3.784 9.513zm9.66 8.884c-.94-.344-.687-1.653-1.01-2.146-.294-.446-.598-.907-1.32-1.174a3.306 3.306 0 0 1-.51-.256c-2.547-5.037-.14-7.423.469-7.917.227.62.402 1.19.492 1.65.08.422.007 1.105-.062 1.764-.087.818-.177 1.664-.01 2.2.25.798.481 2.503 1.276 3.379.706.777 1.43 1.578 1.699 2.248-.093.141-.391.484-1.023.252z" class="C"/><path d="M142.952 91.615c1.151-2.156 4.962-8.09 8.147-7.452 2.591.521 2.745 4.087 3.054 6.185.45 3.078.837 8.461.113 10.692-.697 2.141-3.04 6.332-4.543 7.962-1.852 2-4.652 8.21-5.002 8.857-.552 1.023-1.688 2.505-3.552 2.49-2.614-.02-4.995-2.365-5.262-3.541-1.441-6.385 4.05-19.583 7.045-25.193z" class="B D E"/><path d="M144.01 107.646c-.69.941-1.341 1.83-1.53 2.597-.065.262-.038.798-.002 1.23.03.35.13.5.217.488s.127-.176.098-.53a8.236 8.236 0 0 1-.035-.8c.168.123.39.221.678.206a1.43 1.43 0 0 0 .553-.153c.992-.487.64-1.834.922-2.38.242-.467.451-.872 1.05-1.166 1.085-.535 3.867-2.425 4.168-3.796.813-3.715-3.378-8.083-3.804-8.688l.503-1.247.772-1.603c.731 1.167 5.22 6.628 4.55 10.506-.633 3.654-5.87 8.822-7.07 10.274-.223.271-.357.533-.293.592s.307-.106.53-.376c1.214-1.462 6.488-6.647 7.142-10.435.051-.29.08-.589.091-.892.164-.296.652-2.242.821-4.824.216-3.28-.578-7.718-.799-8.592.43-.056-.225-.177 0 0 .276.216.47.452.547.413s.007-.332-.25-.571c-.35-.325-.94-.633-1.794-.305-2.07.793-3.61 3.529-4.537 5.685-.805 1.874-2.008 5.316-2.16 7.103-.04.477.101 1.14.252 1.844.164.77.335 1.57.238 2.055-.15.749-.18 2.44-.858 3.365zm3.763-16.16c.513-.915 1.749-2.505 2.59-2.89.49.783 3.852 5.974 2.168 11.955-.29-3.949-4.313-8.38-4.758-9.066zm-4.965 18.765c.196-.695.834-1.568 1.454-2.414.698-.954.751-2.674.916-3.493.109-.55-.067-1.383-.239-2.187-.139-.648-.282-1.32-.246-1.748.04-.467.154-1.053.315-1.693.658.428 3.301 2.55 1.295 7.825a3.19 3.19 0 0 1-.481.308c-.69.34-.944.83-1.19 1.305-.271.525.118 1.8-.781 2.24-.604.298-.936-.011-1.043-.143z" class="C"/><use xlink:href="#V" class="B"/><path d="M113.003 25.97c16.887 7.197 29.297 24.5 30.417 45.33a55.557 55.557 0 0 1-.84 13.143c-.009.04-7.285 36.234-11.836 47.48-.3.74-1.102 2.128-1.592 2.736-5.558 6.898-18.735 20.15-25.874 22.855-.62.235-5.113.472-5.755.307-8.258-2.142-21.514-14.195-28.103-20.05-.573-.508-1.56-1.738-1.946-2.424C61.537 124.789 50.62 89.46 50.61 89.42a55.574 55.574 0 0 1-2.25-12.975c-1.122-20.878 9.408-39.458 25.485-48.412-18.443 8.684-30.74 27.83-29.578 49.366a51.332 51.332 0 0 0 2.385 12.967c.011.04 11.714 35.328 18.118 45.86.416.685 1.483 1.911 2.104 2.418 7.133 5.825 21.485 17.82 30.448 19.925.697.164 5.58-.095 6.255-.333 7.77-2.736 22.15-16.052 28.221-22.976.536-.612 1.414-2.003 1.743-2.746 4.997-11.269 13.068-47.503 13.079-47.544.87-4.23 1.217-8.636.972-13.15-1.158-21.486-15.383-39.169-34.589-45.85z" fill="#e8b9a0"/><use xlink:href="#V" fill="none" class="D E"/><path d="M100.671 140.999c-5.683-.008-7.963-3.983-7.963-3.983 6.845 2.441 15.408.264 15.408.264s-1.739 3.728-7.445 3.719z" fill="url(#O)" transform="matrix(.848834 -.0445 .0445 .848834 8.425719 26.883948)"/><path d="M83.651 134.058c3.025-.254 8.992-.99 11.194-.975 1.138.007 3.04.69 4.278.893.86.142 4.05-.908 4.922-.958 2.28-.134 7.283.703 9.961.995.148.015 0 0 0 0s-6.242 5.924-14.632 5.996c-9.496.08-15.723-5.95-15.723-5.95s-.15.011 0 0z" fill="#da7c87"/><path d="M114.247 133.834c-.077-.104-.555-.18-.728-.15-.314.054-.528.358-1.189.452l-5.909.975c-2.234.063-4.768.727-6.904.746s-5.538-.697-7.764-.737c-1.105-.02-5.681-.837-6.438-.946-.65-.093-.718-.393-.982-.465-.185-.053-.707.018-.844.121-.118.091-.06.477.032.58.224.248 1.01.317 1.585.4l6.579.96c2.203.042 5.65.812 7.807.794s4.734-.748 6.945-.808c1.138-.03 5.23-.869 6.04-.984.586-.085 1.312-.22 1.574-.424.125-.096.273-.406.196-.514z" fill="#ac2e3d"/><path d="M99.41 138.924c-3.752.033-9.735-1.117-12.095-2.9 1.392.093 4.398.179 5.78.287 1.706.136 4.085.64 5.82.71 1.873.073 4.404-.433 6.214-.686 1.512-.209 3.844-.764 5.358-.893-2.471 1.655-7.453 3.45-11.076 3.482zm5.87-4.255c1.357-.14 3.454-.716 4.804-.827-1.547-.337-3.841-.218-5.469-.306-1.405-.075-3.496.77-4.876.94-1.555.193-3.468-.843-4.926-.877-1.582-.034-4.854.495-6.386.849 1.328.075 4.212.148 5.524.29 1.608.177 3.925.617 5.583.604 1.7-.014 4.076-.499 5.747-.673z" fill="#e28c96"/><path d="M99.382 138.254c-2.235.017-5.98-.59-7.637-1.613l2.001.056.374.023c.647.052 1.278.192 1.951.336.653.142 2.127.289 2.85.325l.427.006a21.93 21.93 0 0 0 3.338-.353l1.491-.289a9.35 9.35 0 0 1 .899-.088l.88-.032c-1.46.838-4.271 1.61-6.574 1.629z" fill="#e99ca5"/><path d="M81.654 134.95s-.654-.978-.59-1.36c.091-.531 1.55-1.656 1.55-1.656s-.853 1.25-.975 1.637c-.117.375.015 1.378.015 1.378z" class="C"/><use xlink:href="#W" fill="url(#A)" transform="matrix(.848834 -.0445 .0445 .848834 8.425719 26.883948)"/><path d="M80.29 94.82a5.1 5.1 0 0 1-10.186.533 5.1 5.1 0 0 1 10.186-.534z" class="F"/><g transform="matrix(.848834 -.0445 .0445 .848834 8.649086 27.085139)"><path d="M73.328 78.066l-.071.009.085.406-.014-.415zm.013.414c.07 1.972.185 3.729.517 4.364.175-.696-.123-2.43-.517-4.364zm.518 4.365c-.043.167-.108.281-.208.319s-.226-.006-.368-.103c.041.167.037.297-.036.378s-.201.101-.373.078c.113.13.171.249.146.353s-.134.182-.293.242c.159.063.266.141.291.245s-.033.223-.145.352c.17-.021.301.001.371.082s.075.212.035.379c.141-.097.265-.139.365-.1s.166.152.206.32c.081-.152.171-.249.28-.26s.216.059.329.188c.001-.172.037-.299.127-.36s.219-.049.379.013c-.078-.152-.105-.281-.055-.377s.173-.146.344-.166c-.141-.099-.227-.2-.225-.308s.084-.209.227-.306c-.17-.021-.291-.072-.342-.167s-.022-.225.058-.377c-.162.06-.292.072-.38.011s-.125-.188-.125-.36c-.112.128-.224.199-.33.185s-.199-.108-.278-.261zm.607.075c.479-.535 1.021-2.209 1.57-4.104-.854 1.777-1.569 3.386-1.57 4.104zm1.569-4.104l.178-.37c-.021-.007-.042-.017-.063-.026l-.115.396zm-1.063 4.454c.672-.252 1.931-1.483 3.297-2.905-1.581 1.176-2.963 2.269-3.297 2.905zm3.297-2.905l.305-.225-.042-.049-.263.274zm-3.015 3.449c.713.088 2.4-.417 4.272-1.041-1.948.308-3.678.633-4.272 1.041zm4.272-1.04l.337-.052-.014-.057-.323.109zm-4.273 1.653c.59.412 2.318.747 4.262 1.063-1.865-.633-3.548-1.148-4.262-1.063zm4.263 1.063l.285.098c.005-.016.009-.033.012-.05l-.297-.048zm-4.551-.52c.333.637 1.708 1.738 3.282 2.924-1.359-1.43-2.609-2.668-3.282-2.924zm3.283 2.922l.179.189.03-.032-.209-.157zm-3.788-2.575c-.003.719.703 2.331 1.547 4.113-.539-1.897-1.07-3.575-1.547-4.113zm1.547 4.114l.063.229.039-.014-.102-.215zm-2.156-4.042c-.336.637-.461 2.39-.542 4.361.404-1.93.713-3.663.542-4.361zm-.542 4.361l-.047.228c.014.003.025.003.039.005l.008-.233zm-.029-4.581c-.596.407-1.521 1.904-2.508 3.61 1.254-1.52 2.334-2.912 2.508-3.61zm-2.508 3.61l-.162.193.038.024.124-.217zm2.103-4.069c-.716.083-2.231.978-3.898 2.029 1.818-.762 3.418-1.491 3.898-2.029zm-3.899 2.031l-.263.11c.006.013.015.027.023.04l.24-.15zm3.752-2.628c-.671-.257-2.429-.168-4.395-.011 1.964.168 3.722.265 4.395.011zm-4.395-.011l-.323-.029c0 .019-.002.038 0 .056l.323-.027zm4.542-.583c-.473-.539-2.069-1.277-3.881-2.051 1.659 1.06 3.169 1.964 3.881 2.051zm-3.881-2.051l-.315-.201-.029.055.344.146zm4.29 1.593c-.169-.698-1.241-2.094-2.485-3.623.976 1.712 1.893 3.213 2.485 3.623zm-2.485-3.623l-.199-.349-.056.039.255.31z" fill="url(#G)" opacity=".7"/><path d="M74.886 78.086l-.07-.01-.024.414.094-.404zm-.095.403c-.442 1.922-.787 3.649-.629 4.35.349-.628.509-2.38.629-4.35zm-.63 4.35c-.084.15-.176.243-.283.254s-.216-.064-.327-.195c-.004.171-.042.297-.133.356s-.221.045-.38-.021c.076.155.101.285.049.378s-.176.142-.345.158c.137.101.22.204.217.312s-.089.207-.231.302c.169.024.29.079.337.174s.018.225-.064.375c.161-.057.292-.065.379-.002s.12.19.116.363c.117-.125.229-.196.337-.179s.194.113.27.268c.045-.167.113-.279.216-.315s.225.01.363.111c-.036-.167-.029-.299.044-.378s.205-.096.376-.072c-.111-.132-.168-.251-.138-.355s.136-.18.299-.237c-.16-.064-.263-.145-.288-.25s.037-.223.154-.349c-.172.016-.301-.006-.37-.088s-.072-.214-.028-.379c-.142.094-.268.134-.367.093s-.165-.156-.203-.324zm.568.231c.601-.394 1.557-1.871 2.578-3.558-1.285 1.495-2.391 2.863-2.578 3.558zm2.578-3.559l.268-.311c-.019-.013-.036-.028-.055-.042l-.213.353zm-2.18 4.027c.715-.07 2.25-.934 3.937-1.953-1.833.727-3.45 1.425-3.937 1.953zm3.936-1.954l.354-.138-.028-.059-.326.197zm-3.804 2.553c.666.27 2.426.218 4.395.101-1.961-.208-3.716-.342-4.395-.101zm4.395.1l.339.037.002-.058-.341.021zm-4.554.492c.462.551 2.046 1.321 3.842 2.129-1.639-1.095-3.131-2.027-3.842-2.129zm3.841 2.129l.25.168.025-.045-.275-.123zm-4.261-1.679c.156.701 1.2 2.12 2.414 3.674-.943-1.734-1.83-3.254-2.414-3.674zm2.414 3.671l.125.229c.012-.009.024-.016.037-.024l-.162-.205zm-2.991-3.467c-.188.693.076 2.433.43 4.373-.031-1.972-.109-3.73-.43-4.373zm.429 4.373l.003.238.041-.004-.044-.234zm-1.036-4.462c-.49.528-1.064 2.189-1.652 4.072.889-1.759 1.637-3.353 1.652-4.072zm-1.653 4.072l-.104.208.036.015.068-.223zM73 84.934c-.68.239-1.962 1.446-3.357 2.838 1.607-1.144 3.009-2.209 3.357-2.838zm-3.356 2.838l-.205.145.029.032.176-.177zm3.084-3.387c-.713-.104-2.407.368-4.291.952 1.955-.266 3.688-.556 4.291-.952zm-4.291.954l-.283.039a.32.32 0 0 0 .013.044l.27-.083zm4.304-1.567c-.582-.423-2.303-.792-4.242-1.149 1.854.671 3.526 1.22 4.242 1.149zm-4.242-1.149l-.305-.112-.015.054.32.058zm4.539.612c-.318-.643-1.668-1.769-3.219-2.986 1.328 1.455 2.553 2.719 3.219 2.986zm-3.22-2.985l-.251-.275-.042.046.293.229zm3.733 2.649c.017-.718-.656-2.344-1.464-4.142.5 1.906.998 3.593 1.464 4.142zm-1.464-4.142l-.101-.389-.063.023.164.366z" fill="url(#C)" opacity=".4"/></g><path d="M77.195 94.982a2 2 0 1 1-3.994.21 2 2 0 0 1 3.994-.21z" class="F"/><path d="M77.195 94.982a2 2 0 1 1-3.994.21 2 2 0 0 1 3.994-.21z" opacity=".9"/><g transform="matrix(.848834 -.0445 .0445 .848834 8.649086 27.085139)"><path d="M70.717 86.748a.981.981 0 1 1 1.091 1.63.981.981 0 0 1-1.091-1.63z" fill="url(#P)" opacity=".5"/><path d="M75.86 83.672c-.251.374-.969.331-1.606-.096s-.95-1.078-.7-1.451v-.001c.25-.374.969-.331 1.605.097s.951 1.076.701 1.451z" fill="url(#R)" opacity=".5"/><path d="M78.716 82.673c-.568.873-2.036.925-3.275.117s-1.784-2.17-1.215-3.043 2.036-.924 3.275-.117 1.783 2.172 1.215 3.043z" fill="url(#N)" opacity=".75"/></g><path d="M57.353 94.957c1.172 9.216 10.927 19.5 18.395 17.963 8.916-.377 17.36-7.607 16.718-19.861S86.968 70.767 73.353 71.48c-9.762.511-16.642 11.223-16 23.477zm7.158-.78c-.53-1.918 4.23-3.604 10.654-3.156s11.058 4.122 10.58 6.122c-.266 1.109-8.887 3.228-11.973 3.05-3.128-.18-7.978-1.388-9.26-6.017z" class="B"/><g transform="matrix(.848834 -.0445 .0445 .848834 8.425719 26.883948)"><path d="M72.262 90.163c3.614.398 13.873-1.561 14.253-2.847.687-2.32-4.534-6.921-12.052-7.844-6.46-.792-11.563.344-12.556 2.128.898-6.4 7.7-11.397 15.987-11.434 8.911-.037 16.148 5.676 16.172 12.765s-7.185 12.862-16.095 12.902-16.149-5.676-16.173-12.764c0-.105.016-.208.019-.313 1.33 5.327 6.834 7.008 10.445 7.407z" fill="url(#I)"/><use xlink:href="#W" fill="url(#J)"/></g><path d="M64.62 89.825c3.484-1.867 7.84-2.25 11.702-1.47 2.065.37 4.271.87 6.112 1.926 1.702.877 3.104 1.965 4.433 3.334-1.215-1.384-2.493-2.523-4.114-3.419-1.995-1.1-4.15-1.735-6.381-2.147-3.943-.752-8.291-.306-11.752 1.776z" class="C"/><path d="M65.174 90.309c.732-.338 3.406-1.03 4.584-1.148 1.428-.144 4.312-.12 5.736.06 2.89.366 7.963 1.697 10.232 5.579.698 1.193.172 2.081.015 2.276.146-2.073-4.407-5.51-10.569-5.918-6.423-.425-11.186 1.218-10.658 3.076 1.275 4.485 6.123 5.648 9.251 5.818 3.499.19 9.85-1.826 10.69-2.052-1.652.945-6.293 2.113-8.188 2.39-.628.092-1.897.187-2.53.204-5.057.13-8.774-2.243-10.28-5.64-.967-2.185-.119-3.798 1.717-4.645z"/><use xlink:href="#X" fill="url(#H)" transform="matrix(.848834 -.0445 .0445 .848834 8.425719 26.883948)"/><path d="M124.005 92.528a5.1 5.1 0 0 1-10.186.534 5.1 5.1 0 0 1 10.186-.534z" class="F"/><g transform="matrix(.848834 -.0445 .0445 .848834 8.224529 27.107367)"><path d="M125.328 78.066l-.071.009.085.406-.014-.415zm.013.414c.069 1.972.185 3.729.518 4.364.174-.696-.124-2.43-.518-4.364zm.517 4.365c-.042.167-.108.281-.207.319s-.226-.006-.367-.103c.04.167.036.297-.036.378s-.201.101-.372.078c.112.13.171.249.146.353s-.134.182-.293.242c.158.063.265.141.29.245s-.032.223-.145.352c.17-.021.3.001.37.082s.075.212.035.379c.141-.097.266-.139.365-.1s.166.152.206.32c.08-.152.172-.249.279-.26s.217.059.329.188c.002-.172.037-.299.128-.36s.219-.049.379.013c-.078-.152-.104-.281-.056-.377s.174-.146.345-.166c-.141-.099-.228-.2-.225-.308s.084-.209.227-.306c-.171-.021-.291-.072-.342-.167s-.022-.225.057-.377c-.161.06-.291.072-.38.011s-.124-.188-.125-.36c-.111.128-.224.199-.33.185s-.198-.108-.278-.261zm.608.075c.479-.535 1.021-2.209 1.569-4.104-.853 1.777-1.567 3.386-1.569 4.104zm1.569-4.104l.179-.37c-.021-.007-.042-.017-.063-.026l-.116.396zm-1.063 4.454c.673-.252 1.932-1.483 3.298-2.905-1.582 1.176-2.963 2.269-3.298 2.905zm3.298-2.905l.305-.225-.042-.049-.263.274zm-3.015 3.449c.713.088 2.399-.417 4.271-1.041-1.948.308-3.678.633-4.271 1.041zm4.271-1.04l.337-.052-.014-.057-.323.109zm-4.273 1.653c.591.412 2.318.747 4.263 1.063-1.866-.633-3.549-1.148-4.263-1.063zm4.263 1.063l.285.098.013-.05-.298-.048zm-4.551-.52c.332.637 1.708 1.738 3.282 2.924-1.358-1.43-2.609-2.668-3.282-2.924zm3.283 2.922l.178.189c.01-.012.02-.021.031-.032l-.209-.157zm-3.787-2.575c-.003.719.702 2.331 1.547 4.113-.54-1.897-1.071-3.575-1.547-4.113zm1.547 4.114l.063.229.039-.014-.102-.215zm-2.157-4.042c-.336.637-.461 2.39-.542 4.361.404-1.93.713-3.663.542-4.361zm-.542 4.361l-.047.228c.014.003.024.003.039.005l.008-.233zm-.03-4.581c-.596.407-1.521 1.904-2.508 3.61 1.255-1.52 2.334-2.912 2.508-3.61zm-2.508 3.61l-.161.193.037.024.124-.217zm2.103-4.069c-.716.083-2.23.978-3.897 2.029 1.818-.762 3.418-1.491 3.897-2.029zm-3.897 2.031l-.263.11c.007.014.014.027.023.04l.24-.15zm3.752-2.628c-.672-.257-2.43-.168-4.396-.011 1.965.168 3.722.265 4.396.011zm-4.396-.011l-.322-.029c-.001.019-.003.038-.001.056l.323-.027zm4.543-.583c-.474-.539-2.069-1.277-3.882-2.051 1.659 1.06 3.169 1.964 3.882 2.051zm-3.882-2.051l-.315-.201-.028.055.343.146zm4.29 1.593c-.169-.698-1.241-2.094-2.485-3.623.976 1.712 1.893 3.213 2.485 3.623zm-2.485-3.623l-.198-.349-.057.039.255.31z" fill="url(#D)" opacity=".7"/><path d="M126.886 78.086l-.07-.01-.024.414.094-.404zm-.095.403c-.443 1.922-.787 3.649-.63 4.35.35-.628.51-2.38.63-4.35zm-.63 4.35c-.084.15-.177.243-.283.254s-.216-.064-.327-.195c-.004.171-.042.297-.133.356s-.221.045-.38-.021c.075.155.101.285.049.378s-.176.142-.346.158c.138.101.22.204.217.312s-.089.207-.23.302c.17.024.289.079.337.174s.018.225-.064.375c.162-.057.293-.065.38-.002s.12.19.115.363c.117-.125.229-.196.337-.179s.194.113.27.268c.046-.167.113-.279.216-.315s.226.01.363.111c-.035-.167-.028-.299.045-.378s.204-.096.375-.072c-.11-.132-.168-.251-.138-.355s.136-.18.299-.237c-.159-.064-.263-.145-.288-.25s.038-.223.154-.349c-.172.016-.302-.006-.37-.088s-.072-.214-.027-.379c-.143.094-.269.134-.368.093s-.166-.156-.203-.324zm.568.231c.601-.394 1.557-1.871 2.578-3.558-1.285 1.495-2.391 2.863-2.578 3.558zm2.578-3.559l.269-.311c-.02-.013-.037-.028-.056-.042l-.213.353zm-2.18 4.027c.715-.07 2.249-.934 3.937-1.953-1.833.727-3.45 1.425-3.937 1.953zm3.936-1.954l.354-.138-.028-.059-.326.197zm-3.804 2.553c.666.27 2.426.218 4.396.101-1.963-.208-3.717-.342-4.396-.101zm4.395.1l.339.037.002-.058-.341.021zm-4.554.492c.463.551 2.046 1.321 3.842 2.129-1.639-1.095-3.131-2.027-3.842-2.129zm3.841 2.129l.25.168c.009-.014.017-.029.024-.045l-.274-.123zm-4.26-1.679c.155.701 1.199 2.12 2.413 3.674-.943-1.734-1.829-3.254-2.413-3.674zm2.414 3.671l.124.229c.012-.009.024-.017.037-.024l-.161-.205zm-2.992-3.467c-.188.693.076 2.433.43 4.373-.031-1.972-.109-3.73-.43-4.373zm.429 4.373l.003.238c.015-.002.026-.004.04-.004l-.043-.234zm-1.037-4.462c-.489.528-1.064 2.189-1.652 4.072.89-1.759 1.637-3.353 1.652-4.072zm-1.652 4.072l-.104.208.035.015.069-.223zM125 84.934c-.68.239-1.961 1.446-3.356 2.838 1.606-1.144 3.008-2.209 3.356-2.838zm-3.356 2.838l-.205.145.029.032.176-.177zm3.084-3.387c-.713-.104-2.406.368-4.29.952 1.954-.266 3.688-.556 4.29-.952zm-4.29.954l-.283.039.013.044.27-.083zm4.303-1.567c-.582-.423-2.303-.792-4.242-1.149 1.854.671 3.526 1.22 4.242 1.149zm-4.242-1.149l-.305-.112-.015.054.32.058zm4.539.612c-.318-.643-1.669-1.769-3.22-2.986 1.329 1.455 2.554 2.719 3.22 2.986zm-3.22-2.985l-.251-.275-.043.046.294.229zm3.733 2.649c.017-.718-.656-2.344-1.464-4.142.501 1.906.998 3.593 1.464 4.142zm-1.464-4.142l-.102-.389-.063.023.165.366z" fill="url(#E)" opacity=".4"/></g><path d="M120.91 92.69a2 2 0 1 1-3.995.21 2 2 0 0 1 3.995-.21z" class="F"/><path d="M120.91 92.69a2 2 0 1 1-3.995.21 2 2 0 0 1 3.995-.21z" opacity=".9"/><g transform="matrix(.848834 -.0445 .0445 .848834 8.224529 27.107367)"><path d="M122.718 86.748a.98.98 0 1 1 1.09 1.628.98.98 0 0 1-1.09-1.628z" fill="url(#Q)" opacity=".5"/><path d="M127.859 83.672c-.251.374-.969.331-1.605-.096s-.95-1.078-.7-1.451l.001-.001c.25-.374.969-.331 1.605.097s.95 1.076.699 1.451z" fill="url(#T)" opacity=".5"/><path d="M130.717 82.673c-.569.873-2.036.925-3.276.117s-1.784-2.17-1.215-3.043 2.035-.924 3.275-.117 1.783 2.172 1.216 3.043z" fill="url(#S)" opacity=".75"/></g><path d="M117.939 69.143c-13.616.714-17.396 11.203-16.754 23.458s9.796 18.563 18.703 18.005c7.588.749 16.215-10.5 16.417-19.787-.642-12.254-8.605-22.188-18.366-21.676zm2.585 28.6c-3.05.5-11.846-.707-12.225-1.782-.687-1.939 3.54-6.076 9.88-7.194s11.254.063 10.926 2.024c-.792 4.737-5.49 6.446-8.581 6.953z" class="B"/><g transform="matrix(.848834 -.0445 .0445 .848834 8.425719 26.883948)"><path d="M127.339 90.163c-3.614.398-13.873-1.561-14.253-2.847-.687-2.32 4.534-6.921 12.052-7.844 6.46-.792 11.563.345 12.556 2.128-.898-6.4-7.7-11.397-15.987-11.434-8.911-.037-16.148 5.676-16.172 12.765s7.185 12.862 16.095 12.902 16.149-5.676 16.173-12.764c0-.105-.016-.208-.019-.313-1.331 5.327-6.835 7.008-10.445 7.407z" fill="url(#K)"/><use xlink:href="#X" fill="url(#L)"/></g><path d="M128.54 86.475c-3.659-1.492-8.032-1.418-11.79-.238-2.016.583-4.157 1.312-5.878 2.554-1.6 1.05-2.88 2.278-4.06 3.779 1.064-1.504 2.216-2.77 3.735-3.83 1.869-1.304 3.946-2.16 6.12-2.803 3.844-1.16 8.215-1.171 11.874.538z" class="C"/><path d="M128.041 87.014c-.762-.26-3.495-.668-4.678-.662-1.436.005-4.3.332-5.698.66-2.837.666-7.742 2.519-9.593 6.617-.57 1.26.046 2.088.223 2.265-.363-2.046 3.807-5.941 9.892-6.99 6.343-1.094 11.252.042 10.921 1.945-.8 4.594-5.5 6.257-8.592 6.753-3.46.555-9.986-.787-10.846-.924 1.742.768 6.48 1.444 8.393 1.52a27.9 27.9 0 0 0 2.538-.06c5.043-.399 8.49-3.147 9.633-6.684.734-2.274-.278-3.79-2.193-4.44z"/><g transform="matrix(.848834 -.0445 .0445 .848834 8.425719 26.883948)"><path d="M141 113.974c.035 22.622-18.292 40.994-40.938 41.025-22.642.037-41.028-18.273-41.063-40.9-.035-22.62 18.292-41.064 40.937-41.1s41.031 18.35 41.064 40.975z" fill="url(#B)"/><path d="M137.5 53.999c0 20.711-16.789 37.5-37.499 37.5S62.5 74.71 62.5 53.999s16.79-37.5 37.501-37.5 37.499 16.789 37.499 37.5z" fill="url(#F)"/></g><path d="M57.56 87.447c8.006-8.91 13.965-5.767 25.82-4.131.725.1 5.433 1.025 4.662 2.708-.37.806-1.692.782-2.429.806-11.63.392-17.713-7.579-28.053.617zm78.093-4.093c-8.892-8.023-14.49-4.275-26.11-1.41-.711.176-5.296 1.588-4.354 3.181.451.763 1.765.6 2.5.549 11.607-.827 16.825-9.39 27.964-2.32z" class="G"/><path d="M90.903 120.861c-.654 1.791 5.227 3.38 7.428 3.38 2.383.001 8.907-2.934 7.685-4.651-1.285-1.801-5.651.053-7.572.153-1.912.1-6.666-1.272-7.541 1.118z" fill="#e1ac8f"/><path d="M100.09 121.707c-.229-.634 1.522-1.428 2.18-1.556.928-.185 2.888.53 2.752 1.21-.126.601-1.847-.356-2.447-.236-.619.123-2.268 1.176-2.485.582zm-5.853.096c.821-.043 2.068.422 2.268-.056.238-.57-1.881-1.145-2.49-1.037-.502.086-2.26 1.238-1.988 1.67.254.396 1.126-.52 2.21-.577z" class="C"/><path d="M98.364 117.491c.516-.027 1.446-.706 1.422-1.973-.096-5.108-1.871-20.187-2.578-20.097-.66.085-1.14 15.072-.596 20.264.133 1.271 1.17 1.837 1.752 1.806z" fill="#fff5ef" opacity=".2"/><path d="M94.113 37.816zm0 0zM50.82 105.424c-2.449-7.374-3.9-13.867-5.796-20.622l.07-.02c-.658-1.403-3.355-12.642-3.38-12.764-2.934-14.971 3.402-16.166 2.942-22.453 2.757 1.205 5.334.4 7.595-1.56-2.543-1.142-1.772-1.384-5.166-3.214 2.297-.522 3.68-.053 5.661.09-1.771-1.596-5.255-4.856-7.378-4.288l-.155-.294c2.98-2.588 7.393 2.244 11.061.68C55.66 27.076 75.824 23.125 80.66 20.8c6.451-2.85 13.039-8.719 17.849-9.465-2.593 2.895-4.038 7.404-3.99 10.728 3.79-4.017 4.077-3.92 9.77-10.95.283 5.402-1.178 6.158-2.954 9.43 5.09-3.73 11.156-13.768 21.202-15.78l.127.308c-3.535 2.34-6.169 6.114-7.836 11.227 1.794-2.414 4.374-5.066 7.35-5.678l.13.307c-1.821 1.224-5.308 5.166-5.822 11.488 3.502-4.348 9.237-8.1 13.23-9.613l.173.285c-3.569 3.228-4.785 8.616-5.391 13.174 2.41-4.024 3.885-4.99 7.088-6.796-.975 1.639-.92 1.358-1.673 3.123 2.307 5.091 9.037 4.94 10.662 13.961 1.32-1.28 1.853-1.613 3.386-2.809l.251.219c-1.098 1.919-1.91 5.258-2.452 7.492 2.266-1.925 5.84-3.444 8.358-4.504l.193.269c-2.05 2.314-4.503 5.807-4.748 9.47.822-.547.866-.491 1.93-1.349.136 2.615.208 2.277.29 3.479 1.017-1.011 1.173-1.153 1.835-1.953 1.284 27.478-.414 22.077-3.207 41.42-.489 3.4-1.358 9.335-1.966 12.196l-5.088 1.151c.59-19.092-.858-14.86-.33-26.882.783-17.728-14.249-31.438-32.863-25.717-3.766 1.157-18.998 1.955-22.862 1.198-21.11-4.14-27.98 8.429-29.1 29.85-.548 10.513-1.001 6.999 1.586 25.931l-4.968-.586z" class="G"/><path d="M147.782 48.817c-.081-1.203-.154-.864-.29-3.48-1.064.858-1.108.803-1.93 1.35.245-3.663 2.698-7.156 4.748-9.47l-.193-.27c-2.517 1.062-6.091 2.58-8.358 4.505.54-2.234 1.354-5.573 2.452-7.493l-.251-.218c-1.533 1.196-2.066 1.528-3.386 2.81-1.624-9.02-8.355-8.871-10.661-13.962.751-1.765.697-1.484 1.673-3.123-3.204 1.806-4.679 2.772-7.09 6.796.607-4.558 1.824-9.946 5.393-13.174l-.174-.285c-3.993 1.513-9.728 5.265-13.23 9.613.515-6.322 4.001-10.264 5.822-11.488l-.129-.307c-2.977.611-5.556 3.264-7.35 5.678 1.667-5.113 4.3-8.887 7.836-11.227l-.128-.309c-10.046 2.013-16.111 12.05-21.202 15.781 1.776-3.272 3.237-4.03 2.954-9.43-5.693 7.03-5.98 6.933-9.769 10.95-.05-3.324 1.396-7.834 3.989-10.728-4.81.746-11.397 6.615-17.85 9.465-4.835 2.324-25 6.275-24.384 20.18-3.668 1.563-8.08-3.269-11.061-.68l.155.292c2.123-.568 5.607 2.692 7.378 4.288-1.981-.142-3.364-.612-5.661-.09 3.394 1.83 2.623 2.073 5.166 3.215-2.26 1.96-4.838 2.765-7.595 1.56.46 6.288-5.877 7.483-2.943 22.453.026.122 2.723 11.361 3.38 12.764l-.07.02c1.897 6.754 3.348 13.248 5.797 20.622l.022.002C49.55 91.5 39.717 72.12 44.211 59.14c.586-1.695 2.96-6.208 2.96-6.208s8.116-1.501 8.335-4.693c0 0-1.743-.76-2.636-1.564 1.742.76 1.609-1.787 3.351-1.027-.089-1.698-2.591-.715-2.68-2.413 1.698-.089 3.395-.178 5.182 1.43-1.071-4.199-.445-8.487 2.817-11.212 8.133-7.235 19.212-6.965 27.344-14.2-.626 4.288-1.253 8.577-1.03 12.821 4.96-2.813 6.39-7.995 10.456-11.613 1.027 3.35-.448 7.684-.27 11.08 2.235-6.076 5.319-12.196 12.87-14.294-3.218 3.573-2.951 8.666-2.729 12.91-.177-3.395 3.129-5.27 3.844-7.861l.534 10.186c1.43-5.182 4.693-7.907 8.848-9.827-3.217 3.573-2.19 6.924-2.817 11.213 2.413-2.68 5.764-3.707 8.177-6.387 2.813 4.96 1.338 9.293 1.605 14.386.626-4.289 4.737-7.058 7.106-10.587a32.194 32.194 0 0 1 .667 12.733c.715-2.591 2.324-4.378 3.04-6.969.216 4.126-.165 7.722-1.097 11.244 1.001-1.288 2.71-1.939 3.194-3.693l.535 10.209c.44-1.038 1.873-1.467 2.412-2.703-.573 2.935.056 5.192.364 7.898.228-1.68 1.776-2.784 2.275-4.346l-.004-1.988c.235.764.189 1.407.004 1.988.016 15.125-.621 30.262-2.97 44.95l.546-.123c.607-2.86 1.476-8.796 1.966-12.195 2.793-19.344 4.491-13.943 3.206-41.421-.66.8-.817.942-1.834 1.952z" fill="#3a353a"/><path d="M151.716 36.129c-4.164.928-7.027 2.443-9.19 4.1.281-.871 1.564-5.76 3.11-7.867-2.478 1.265-3.883 2.555-4.698 3.234-.046-.876-.437-1.87-.628-2.385-.183-.428-.345-.932-1.195-2.167-4.714-5.963-4.852-3.358-8.696-7.911.575-1.572 1.445-3.116 2.57-4.416-3.293.645-4.972 2.026-6.964 4.204a.84.84 0 0 0-.08.106c1.044-5.27 3.388-9.912 8.366-11.87-6.28.101-13.796 5.142-17.454 9.971 1.4-5.504 3.525-8.203 6.756-10.78-2.434-.231-4.75.88-6.54 2.538 1.96-3.845 5.01-6.986 7.513-8.505-.366.01-.8.008-1.273.067-.669-.135-4.626.724-6.02 1.413-6.926 3.131-11.733 9.826-13.832 12.028 1.489-2.714 1.47-4.586 1.03-7.305-.53.507-9.367 9.9-9.476 10.02.468-3.691 1.597-5.987 3.782-9.382-4.24-.565-14.391 6.898-20.812 9.084C71.254 22.513 54.513 27.258 56 40.779c-3.61.887-9.255-4.687-11.795.372 2.176-1.45 5.32 1.602 7.486 3.327-.856-.094-3.729-.612-5.053.375 1.64.54 3.144 2.331 5.182 3.219a.302.302 0 0 1 .078.03c-1.766 1.052-3.871 1.934-5.872 1.49l-.5-.118-.755-.284h-.008l-.01-.008a12.439 12.439 0 0 0-.348-.16c.84 4.73-6.184 8.968-4.86 18.997.651 6.18 5.513 24.828 11.053 37.354l.416.1c-2.414-7.215-3.95-14.04-5.826-20.718-.132.006-3.278-12.634-3.308-12.773-2.912-14.855 3.398-16.274 2.967-22.15 2.719 1.186 5.564.08 7.716-1.877-2.716-1.178-2.171-1.578-4.997-3.1 1.819-.414 4.098.196 5.646.215-2.096-1.887-5.637-5.246-7.887-4.643 2.905-2.523 7.358 2.399 11.125.66-.729-13.907 19.263-17.722 24.284-20.135 6.049-2.671 13.4-8.768 17.331-9.377-1.962 2.195-3.91 6.93-3.701 10.902 3.897-4.152 4.302-4.154 9.778-10.914.267 5.105-1.592 6.116-3.273 9.509 5.28-3.425 11.331-14.066 21.701-16.144-4.24 2.808-6.79 7.442-8.215 12.322 1.86-2.702 4.633-5.801 7.858-6.464-1.652 1.11-5.567 5.213-5.933 12.168 3.46-4.535 9.419-8.449 13.495-9.994-3.742 3.387-4.944 9.087-5.552 14.097 1.318-2.259 2.632-4.306 4.777-5.817.009-.009.025-.018.033-.019.842-.639.623-.465 2.078-1.292-.523.879-.582.771-1.384 2.66 2.343 5.306 9.218 4.976 10.733 14.308 1.503-1.48 1.986-1.759 3.604-3.023-1.203 2.1-2.062 5.868-2.599 8.069 2.355-2.239 6.835-4.044 8.718-4.84-2.411 2.722-4.704 6.286-4.809 9.92.503-.377 1.15-.69 1.964-1.345.121 2.312.215 1.997.296 3.525.425-.431 1.392-1.358 1.833-1.892 1.245 26.93-.458 21.783-3.225 40.949-1.035 7.183-1.605 10.51-1.98 12.26l.36-.092c2.563-9.286 7.554-30.223 6.72-40.882-.236-3.988-1.543-12.26-1.631-13.107-.017.016-1.681 1.765-1.703 1.766-.023-.434-.298-2.27-.35-3.276-.288.246-.896.71-1.714 1.248.985-3.596 2.652-5.885 5.772-10.048z"/><g fill="#fff"><path d="M137.873 92.9l-.223 5.331c-.45 8.314-3.91 10.836-20.362 10.515-5.368-.102-9.568-2.937-11.832-7.977-.954-2.12-1.833-4.602-2.39-7.092 7.877-5.946 27.137-7.117 34.807-.777zM56.35 97.172c.18 1.659.477 3.422.779 5.279 1.316 8.221 5.02 10.368 21.35 8.329 5.327-.662 9.208-3.921 10.933-9.17.727-2.208 1.342-4.769 1.634-7.303-8.455-5.09-27.732-4.241-34.696 2.865z" opacity=".2"/><path d="M137.873 92.9c-7.67-6.34-26.938-5.168-34.798.776-.4-1.775-.629-3.559-.58-5.213.213-6.658 11.111-6.438 17.49-7.019 15.773-1.44 17.937 3.622 17.888 11.456zM91.07 89.054c-.908-6.6-11.723-5.242-18.136-5.153-15.829.226-17.46 5.486-16.592 13.263 6.964-7.106 26.25-7.955 34.688-2.865.212-1.807.262-3.597.04-5.245z" opacity=".4"/></g><path d="M139.012 83.937c-.59-1.178-1.377-2.226-2.336-2.985-2.192-1.723-6.119-1.773-9.788-1.793-3.567-.01-10.332.184-14.825.708-11.674 1.378-11.207 6.546-11.207 6.546l-8.352.438s-.077-5.197-11.83-5.338c-4.531-.052-11.272.454-14.818.844-3.647.396-7.555.864-9.547 2.807-.883.855-1.548 1.97-2.011 3.212l-7.022-.977.177 3.387c6.148.853 7.738 1.144 8.584 1.049-.078 2.566.066 7.103.806 10.673 1.755 8.48 5.475 10.591 21.677 8.568 5.378-.674 9.446-4.096 11.187-9.38 1.365-4.156 2.26-7.855 1.75-12.245l10.729-.563c-.05 4.42 1.228 8.013 3.02 11.997 2.275 5.073 6.687 8.05 12.106 8.158 16.334.318 19.812-2.17 20.663-10.786.363-3.628.032-8.156-.314-10.7.851.006 2.402-.45 8.427-1.94l-.178-3.387-6.898 1.707zm-50.015 17.542c-1.665 5.083-5.424 8.242-10.583 8.879-16.134 2.011-19.25-.123-20.88-7.996-.869-4.22-.81-9.763-.77-10.617.16-.034.26-.064.267-.099.643-5.447 5.1-7.434 24.307-7.53 3.174-.013 5.913.44 7.498 1.948.932.879 1.85 2.167 1.841 3.453l.034-.002c.283 2.147.026 6.672-1.714 11.964zm48.234-3.286c-.798 8-3.674 10.45-19.93 10.135-5.198-.102-9.266-2.85-11.454-7.724-2.283-5.08-3.003-9.554-2.946-11.72h.034c-.143-1.27.636-2.647 1.47-3.627 1.419-1.666 4.095-2.402 7.253-2.721 19.111-1.904 23.744-.402 24.96 4.948.01.033.115.062.277.07.12.845.767 6.352.336 10.64z" fill="#26120b"/><path d="M100.851 86.158c.088-1.077 1.12-5.098 11.196-6.281 4.5-.525 11.257-.726 14.824-.709 3.67.012 7.605.07 9.789 1.794.967.758 1.745 1.798 2.335 2.984-3.431-5.063-8.921-4.248-12.148-4.258-1.958-.008-5.283.048-8.738.229-2.351.123-4.369.28-5.984.475-5.973.696-9.246 1.897-11.274 5.766zm-8.386.44c-.2-1.063-1.647-4.953-11.791-5.077-4.531-.052-11.271.455-14.817.845-3.648.395-7.556.864-9.548 2.807-.883.855-1.548 1.97-2.01 3.212 2.883-5.395 8.428-5.157 11.636-5.504 1.946-.213 5.26-.506 8.714-.687 2.351-.123 4.374-.178 6.001-.153 6.013.068 9.394.921 11.815 4.556z" fill="#351d15"/></svg>